<svg width="24" height="24" xmlns="http://www.w3.org/2000/svg" fill="none">

 <g>
  <title>Layer 1</title>
  <path id="svg_1" fill="#000000" d="m2,4.5c0,-1.38071 1.11929,-2.5 2.5,-2.5l15,0c1.3807,0 2.5,1.11929 2.5,2.5l0,15c0,1.3807 -1.1193,2.5 -2.5,2.5l-15,0c-1.38071,0 -2.5,-1.1193 -2.5,-2.5l0,-15zm2.5,-0.5c-0.27614,0 -0.5,0.22386 -0.5,0.5l0,15c0,0.2761 0.22386,0.5 0.5,0.5l15,0c0.2761,0 0.5,-0.2239 0.5,-0.5l0,-15c0,-0.27614 -0.2239,-0.5 -0.5,-0.5l-15,0z" clip-rule="evenodd" fill-rule="evenodd"/>
  <g stroke="null">
   <path stroke="null" fill="#000000" d="m6.74998,6.74998c0,-0.36244 0.29382,-0.65625 0.65625,-0.65625l9.18753,0c0.36245,0 0.65625,0.29382 0.65625,0.65625l0,1.3125c0,0.36244 -0.2938,0.65625 -0.65625,0.65625c-0.36245,0 -0.65625,-0.29382 -0.65625,-0.65625l0,-0.65625l-3.28126,0l0,9.18753l1.3125,0c0.36245,0 0.65625,0.2938 0.65625,0.65625c0,0.36245 -0.2938,0.65625 -0.65625,0.65625l-3.93751,0c-0.36244,0 -0.65625,-0.2938 -0.65625,-0.65625c0,-0.36245 0.29382,-0.65625 0.65625,-0.65625l1.3125,0l0,-9.18753l-3.28126,0l0,0.65625c0,0.36244 -0.29382,0.65625 -0.65625,0.65625c-0.36244,0 -0.65625,-0.29382 -0.65625,-0.65625l0,-1.3125z"/>
  </g>
 </g>
</svg>